<svg width="52" height="65" viewBox="0 0 52 65" fill="none" xmlns="http://www.w3.org/2000/svg">
<path fill-rule="evenodd" clip-rule="evenodd" d="M26.3064 42.9344C26.643 43.2172 27.7536 43.5452 29.5036 42.5951C30.3839 42.1171 31.1008 41.6941 31.687 41.3482C32.5574 40.8345 33.1398 40.4908 33.542 40.3894C34.2151 40.2198 34.5516 40.2198 34.8882 40.7288C35.2247 41.2378 35.0565 43.7828 33.542 44.9705C32.0276 46.1581 30.5132 45.9885 29.167 45.4795C28.0901 45.0723 26.5869 44.2918 25.9699 43.9524C25.9699 43.9524 26.643 45.9885 26.3064 46.3278C25.9699 46.6671 25.5324 45.7849 25.1286 44.9705C24.7247 44.1561 25.1846 43.2738 25.4651 42.9344C26.026 42.1992 27.1814 40.7288 27.3161 40.7288C27.4843 40.7288 27.4843 41.0681 27.4843 41.5771C27.4843 41.9843 26.6991 42.6517 26.3064 42.9344ZM33.8786 41.0681C33.4747 40.9324 30.0084 43.0476 28.3257 44.1221C29.5597 44.3483 32.2632 44.6311 33.2055 43.9524C34.3834 43.1041 34.3834 41.2378 33.8786 41.0681Z" fill="black"/>
<path fill-rule="evenodd" clip-rule="evenodd" d="M19.7439 39.7108C20.0805 38.8059 20.9218 36.8943 21.5949 36.4871C22.4362 35.9781 21.7632 36.1477 22.7728 35.9781C23.7824 35.8084 24.6237 35.8084 25.1286 36.1477C25.5324 36.4192 25.5212 37.1657 25.4651 37.5051C25.7455 37.4485 26.3064 37.3694 26.3064 37.5051C26.3064 37.6748 26.1382 38.6928 24.9603 39.2018C23.7824 39.7108 23.7824 39.8804 22.4362 39.8804C21.3593 39.8804 20.1926 39.8239 19.7439 39.7108ZM20.7535 39.5411C20.2151 39.5411 20.3048 39.3149 20.417 39.2018C20.5292 38.8624 20.8882 38.048 21.4266 37.5051C22.0997 36.8264 22.941 36.1477 22.7728 36.6567C22.6045 37.1658 22.6045 37.6748 22.7728 38.0141C22.9074 38.2856 22.9971 38.41 23.1093 38.5231C23.4459 38.8624 23.6141 38.6249 23.6141 39.0321C23.6141 39.5411 21.4266 39.5411 20.7535 39.5411ZM24.1189 37.3354C23.9843 37.0639 23.6141 36.5436 23.4459 36.3174C23.5019 36.2609 23.7151 36.1477 24.1189 36.1477C24.5228 36.1477 24.8481 36.4871 24.9603 36.6567C25.0725 36.9961 25.2632 37.7766 25.1286 38.1838C24.9939 38.591 24.5116 38.8059 24.2872 38.8624C24.2872 38.4665 24.2536 37.6069 24.1189 37.3354Z" fill="black"/>
<path d="M29.6718 40.0501C30.0084 39.937 30.6814 39.609 30.6814 39.2018C30.6814 38.7946 29.5597 39.1452 28.9988 39.3714C28.7183 39.4845 28.1238 39.7786 27.9891 40.0501C27.8545 40.3216 29.0548 40.1632 29.6718 40.0501Z" fill="black"/>
<path fill-rule="evenodd" clip-rule="evenodd" d="M27.4843 25.289C28.1013 25.289 29.6718 25.5605 31.018 26.6464C32.7007 28.0037 34.5516 29.1914 35.7295 31.2274C36.9074 33.2634 37.7488 34.7904 38.0853 37.1657C38.4218 39.5411 38.4218 40.8984 38.4218 41.7468C38.4218 42.5951 37.7488 45.4795 37.4122 46.3278C37.0757 47.1761 36.7392 48.5335 36.2343 49.2121C35.7295 49.8908 35.5613 50.2301 34.5516 50.7392C33.542 51.2482 32.869 51.2482 32.0276 51.2482C31.1863 51.2482 28.6622 50.7392 27.9891 50.3998C27.3161 50.0605 24.2872 48.7031 23.7824 48.1941C23.2776 47.6851 21.4266 46.1581 20.2487 44.4615C19.0709 42.7648 17.893 40.2198 17.5564 39.0321C17.2199 37.8444 16.8833 35.6387 16.8833 34.4511C16.8833 33.2634 17.0516 32.0757 18.0612 30.2094C19.0709 28.343 21.5949 29.0217 22.268 29.1914C22.941 29.361 23.6141 29.87 24.1189 29.7004C24.6237 29.5307 24.4555 27.325 24.792 26.816C25.1286 26.307 25.8016 25.6284 26.4747 25.4587C27.0132 25.323 27.3721 25.289 27.4843 25.289ZM32.1959 29.361C32.1959 29.6325 30.0645 31.5102 28.9988 32.4151C28.8866 32.7544 28.7295 33.5688 28.9988 34.1117C29.3353 34.7904 29.5036 34.7904 29.6718 34.7904C29.8401 34.7904 29.8401 34.2814 30.0084 33.9421C30.1766 33.6027 30.6814 32.7544 31.1863 32.0757C31.6911 31.3971 32.5324 31.2274 33.0372 31.2274H34.2151C34.3834 31.2274 34.5516 31.0577 34.0468 30.0397C33.542 29.0217 32.1959 28.0037 31.018 27.325C29.8401 26.6464 28.1574 26.1374 27.1478 26.1374C26.1382 26.1374 25.4651 26.816 25.1286 27.325C24.792 27.834 25.1286 29.7004 24.6237 30.0397C24.1189 30.379 23.4459 30.2094 23.1093 30.2094C22.7728 30.2094 20.9218 29.5307 20.0805 29.5307C19.2391 29.5307 18.7343 30.0397 18.3978 30.379C18.0612 30.7184 17.3882 32.2454 17.3882 34.2814C17.3882 36.3174 18.2295 39.0321 19.7439 41.9164C21.2584 44.8008 22.7728 45.9885 24.1189 47.3458C25.4651 48.7031 26.8112 49.3818 27.8209 49.8908C28.8305 50.3998 30.5132 50.7392 31.8593 50.7392C33.2055 50.7392 32.869 50.7392 34.2151 50.0605C35.5613 49.3818 36.4026 47.5155 36.9074 46.1581C37.4122 44.8008 37.7488 42.4254 37.7488 41.5771C37.7488 40.7288 37.5805 39.2018 37.0757 36.3174C36.5709 33.4331 35.8978 32.4151 35.393 32.4151C34.8882 32.4151 34.3834 33.2634 34.2151 33.6027C34.0468 33.9421 32.3641 35.1297 32.1959 35.2994C32.0276 35.4691 30.3449 35.6387 30.3449 35.8084C30.3449 35.9781 31.5228 38.0141 31.3545 38.1838C31.1863 38.3534 30.1766 37.3354 29.3353 36.4871C28.6622 35.8084 27.933 34.1683 27.6526 33.4331C27.6526 32.7544 27.8209 31.3971 28.9988 30.379C30.1766 29.361 32.1959 29.0217 32.1959 29.361ZM30.1766 34.6207C30.1766 34.2135 30.7375 33.4331 31.018 33.0937C31.2984 32.7544 31.9266 32.0418 32.1959 31.9061C32.5324 31.7364 32.1959 32.9241 32.3641 33.2634C32.5324 33.6027 33.2055 33.6027 33.2055 33.7724C33.2055 33.9421 32.869 34.1117 32.3641 34.4511C31.8593 34.7904 30.8497 35.1297 30.5132 35.1297C30.1766 35.1297 30.1766 35.1297 30.1766 34.6207ZM33.3738 31.5667C32.9699 31.5667 32.869 31.6798 32.869 31.7364C33.0372 31.8495 33.4074 32.1436 33.542 32.4151C33.7103 32.7544 33.3738 33.0937 33.7103 33.2634C34.0468 33.4331 34.3834 32.2454 34.2151 31.9061C34.0468 31.5667 33.8786 31.5667 33.3738 31.5667Z" fill="black"/>
<path d="M21.7632 34.1117C22.0436 34.0552 22.7391 33.976 23.2776 34.1117C23.9507 34.2814 24.6237 34.6207 24.6237 34.7904C24.6237 34.9601 23.1093 34.7904 21.5949 35.1297C20.0805 35.4691 19.4074 36.1477 19.2391 35.9781C19.0709 35.8084 19.7439 34.7904 20.5853 34.4511C21.2584 34.1796 21.651 34.1117 21.7632 34.1117Z" fill="black"/>
<path d="M21.5949 61.2585C21.8193 61.7675 22.5372 62.8534 23.6141 63.1249C24.9603 63.4642 27.1478 64.1429 30.6814 63.9732C34.2151 63.8035 36.7392 62.7855 38.0853 61.7675C39.4315 60.7495 39.9363 60.0709 39.9363 59.7315C39.9363 59.3922 38.5901 59.2225 36.7392 60.2405C34.8882 61.2585 34.2151 61.7675 32.1959 62.1069C30.1766 62.4462 28.3257 62.4462 26.3064 62.1069C24.2872 61.7675 23.6141 61.2585 22.7728 61.2585H21.5949Z" fill="black"/>
<path d="M30.1766 55.1505C30.9619 55.1505 32.5324 55.2862 32.5324 55.8292C32.5324 56.5078 31.1863 56.6775 30.3449 56.6775C29.5036 56.6775 28.1574 56.3382 28.1574 55.6595C28.1574 55.1166 29.5036 55.0939 30.1766 55.1505Z" fill="black"/>
<path d="M5.27275 21.726C5.27275 22.3481 5.3064 23.762 5.44102 24.4407C5.60929 25.289 7.29198 29.0217 7.62852 30.379C7.96506 31.7364 8.3016 33.9421 7.79679 34.9601C7.29198 35.9781 7.12372 36.8264 5.94583 38.0141C4.76794 39.2018 4.09486 39.7108 3.25352 41.0681C2.41217 42.4254 2.07563 43.6131 2.07563 44.9705C2.07563 46.3278 2.58044 47.0065 2.58044 47.6851C2.58044 48.3638 1.73909 50.0605 1.40255 50.3998C1.06601 50.7392 0.897743 51.7572 1.06601 52.6055C1.23428 53.4538 2.41217 54.8112 3.08525 54.9808C3.75833 55.1505 5.27276 55.4898 6.45064 54.6415C7.62852 53.7932 8.63815 52.7752 8.63815 51.4178C8.63815 50.0605 8.13334 49.3818 7.29199 48.5335C6.45064 47.6851 5.44103 48.0245 5.44103 47.5155C5.44103 47.0065 7.7968 44.9705 8.30161 44.6311C8.80642 44.2918 10.1526 43.9524 11.1622 43.9524C12.1718 43.9524 13.8545 45.1401 14.191 45.8188C14.5276 46.4975 14.8641 47.3458 15.8737 48.3638C16.8833 49.3818 17.5564 50.9088 16.8834 52.6055C16.2103 54.3022 15.2007 55.6595 15.2007 56.1685C15.2007 56.6775 14.5368 58.0614 14.6958 58.3742C14.8549 58.687 15.6963 58.687 15.8737 58.5439C16.0512 58.4008 15.7055 56.8472 16.042 56.1685C16.3785 55.4898 17.5564 53.1145 17.7247 52.2662C17.893 51.4178 18.0612 50.7392 17.7247 49.8908C17.3882 49.0425 16.5468 47.6851 15.8737 47.0065C15.2007 46.3278 14.8641 44.9705 14.191 44.4615C13.518 43.9524 12.3401 43.2738 10.8257 43.2738C9.31123 43.2738 8.80642 43.6131 7.7968 44.1221C6.78718 44.6311 5.6093 45.9885 5.27276 46.4975C4.93622 47.0065 4.93622 47.1761 5.10449 47.6851C5.27276 48.1941 5.77757 48.5335 6.95545 49.2121C8.13334 49.8908 7.7968 51.7572 7.7968 52.2662C7.7968 52.7752 6.61892 53.9628 6.28238 54.1325C5.94583 54.3022 5.27276 54.4718 4.43141 54.4718C3.59006 54.4718 1.7391 54.1325 1.7391 52.2662C1.7391 50.3998 2.58045 49.5515 2.74872 49.0425C2.91699 48.5335 3.25352 48.1941 3.08525 47.5155C2.91699 46.8368 2.41218 45.4795 2.74872 44.1221C3.08525 42.7648 3.59006 41.7468 3.9266 41.2378C4.26314 40.7288 6.28237 38.3534 6.45064 38.1838C6.61892 38.0141 8.97469 35.1297 8.80642 33.0937C8.63815 31.0577 6.78719 26.4767 6.61892 25.9677C6.45064 25.4587 5.44101 22.5743 5.94583 19.8597C6.45064 17.145 6.11411 16.636 7.29199 14.4303C8.46988 12.2246 8.97469 10.6976 10.9939 8.83128C13.0132 6.96494 13.3497 7.47394 13.6862 6.79527C14.0228 6.1166 14.0228 5.09859 14.3593 3.74125C14.6959 2.38391 16.042 2.04458 16.7151 2.04458C17.3882 2.04458 19.0709 2.38391 19.5757 3.74125C20.0805 5.09859 20.2487 5.43793 19.9122 5.94693C19.5757 6.45593 19.0709 8.15261 17.2199 8.15261C15.3689 8.15261 15.3689 7.64361 14.8641 7.64361C14.3593 7.64361 13.518 8.15261 13.3497 9.34028C13.1814 10.528 13.518 13.2426 14.191 14.2606C14.8641 15.2786 16.3785 17.4843 18.5661 18.5023C20.7536 19.5203 21.5949 20.199 23.7824 20.199C25.9699 20.199 26.643 19.8597 28.3257 20.199C30.0084 20.5383 31.8593 21.726 32.869 22.5743C33.8786 23.4227 35.7295 24.9497 37.0757 24.9497C38.4219 24.9497 39.768 23.762 40.6094 21.8957C41.4507 20.0293 41.619 20.0293 41.1142 18.672C40.6094 17.3147 40.1045 17.654 39.2632 17.654C38.4219 17.654 35.7295 17.8237 35.7295 14.9393C35.7295 12.055 37.7488 11.8853 38.4219 11.8853C39.0949 11.8853 40.4411 12.2246 40.7776 13.7516C41.1142 15.2786 41.7872 16.2966 42.2921 16.8056C42.7969 17.3147 45.3209 19.181 45.4892 20.8777C45.6574 22.5743 46.1623 24.271 45.4892 26.307C44.8161 28.343 43.8065 29.7004 43.1334 30.379C42.4603 31.0577 41.1142 31.9061 40.7776 32.9241C40.4411 33.9421 40.4411 33.9421 40.4411 34.6207C40.4411 35.2994 41.4507 38.6928 41.4507 39.5411C41.4507 40.3894 41.7872 40.7288 41.619 42.2558C41.4507 43.7828 41.1142 44.9705 41.2824 45.9885C41.4507 47.0065 42.2921 47.5155 42.2921 48.5335C42.2921 49.5515 41.7872 50.5695 41.9555 51.0785C42.1238 51.5875 42.2921 51.9268 42.7969 52.2662C43.3017 52.6055 45.8257 53.6235 45.8257 54.8112C45.8257 55.9988 45.1526 56.6775 45.1526 57.0168C45.1526 57.3562 46.3305 57.5258 46.6671 57.5258C47.0036 57.5258 50.7055 57.3562 50.8738 57.0168C51.0421 56.6775 51.0421 56.1685 50.8738 55.9988C50.7055 55.8292 46.1623 57.0168 45.994 56.6775C45.8257 56.3382 46.3305 55.4898 46.3305 54.6415C46.3305 53.7932 45.8257 52.9448 45.1526 52.4358C44.4796 51.9268 42.2921 51.4178 42.2921 51.0785C42.2921 50.7392 43.3017 49.7211 43.3017 48.5335C43.3017 47.3458 42.2921 47.0065 41.9555 45.9885C41.619 44.9705 42.6286 42.4254 42.4603 40.7288C42.2921 39.0321 40.9459 34.4511 41.2824 33.2634C41.619 32.0757 42.6286 32.2454 43.3017 31.5667C43.9748 30.8881 45.4892 28.6824 45.8257 27.1554C46.1623 25.6284 46.8353 23.253 46.3305 21.217C45.8257 19.181 44.6478 18.163 44.143 17.654C43.6382 17.145 42.6286 16.9753 42.2921 16.127C41.9555 15.2786 42.4603 14.4303 41.9555 13.4123C41.4507 12.3943 40.4411 11.7156 39.9363 11.546C39.4315 11.3763 37.7488 10.8673 36.2343 11.8853C34.7199 12.9033 34.7199 14.4303 34.7199 15.109C34.7199 15.7876 35.2247 17.3147 36.0661 17.9933C36.9074 18.672 37.7488 18.672 38.4219 18.672C39.0949 18.672 40.2728 17.9933 40.4411 18.3327C40.6094 18.672 40.2728 20.5383 39.9363 21.217C39.5997 21.8957 39.0949 23.5924 38.0853 23.9317C37.0757 24.271 37.4122 24.271 36.5709 23.9317C35.7295 23.5924 33.542 22.0653 32.869 21.5563C32.1959 21.0473 31.3545 20.199 29.5036 19.69C27.6526 19.181 25.9699 19.181 23.7824 19.181C21.5949 19.181 18.0612 17.4843 17.3882 16.636C16.7151 15.7876 15.5372 15.2786 14.8641 13.073C14.191 10.8673 14.0228 8.15261 14.5276 8.15261C15.0324 8.15261 16.3786 9.00095 17.2199 9.00095C18.0612 9.00095 19.5757 8.15261 20.2487 6.96494C20.9218 5.77726 20.9218 4.58959 20.5853 3.74125C20.2487 2.89292 19.2391 1.19624 17.3882 1.02657C15.5372 0.856905 15.2007 1.53558 14.8641 2.04458C14.5276 2.55358 14.0228 2.55358 13.6862 3.74125C13.3497 4.92893 13.6862 5.77726 13.3497 6.28626C13.0132 6.79527 11.3305 7.47394 9.4795 9.50995C7.62852 11.546 6.61892 14.2606 6.28238 15.4483C6.01314 16.3984 5.49711 20.0293 5.27275 21.726Z" fill="black"/>
<path d="M34.2151 31.2274C34.3834 31.2274 34.5516 31.0577 34.0468 30.0397C33.542 29.0217 32.1959 28.0037 31.018 27.325C29.8401 26.6464 28.1574 26.1374 27.1478 26.1374C26.1382 26.1374 25.4651 26.816 25.1286 27.325C24.792 27.834 25.1286 29.7004 24.6237 30.0397C24.1189 30.379 23.4459 30.2094 23.1093 30.2094C22.7728 30.2094 20.9218 29.5307 20.0805 29.5307C19.2391 29.5307 18.7343 30.0397 18.3978 30.379C18.0612 30.7184 17.3882 32.2454 17.3882 34.2814C17.3882 36.3174 18.2295 39.0321 19.7439 41.9164C21.2584 44.8008 22.7728 45.9885 24.1189 47.3458C25.4651 48.7031 26.8112 49.3818 27.8209 49.8908C28.8305 50.3998 30.5132 50.7391 31.8593 50.7391C33.2055 50.7391 32.869 50.7391 34.2151 50.0605C35.5613 49.3818 36.4026 47.5155 36.9074 46.1581C37.4122 44.8008 37.7488 42.4254 37.7488 41.5771C37.7488 40.7288 37.5805 39.2018 37.0757 36.3174C36.5709 33.4331 35.8978 32.4151 35.393 32.4151C34.8882 32.4151 34.3834 33.2634 34.2151 33.6027C34.0468 33.9421 32.3641 35.1297 32.1959 35.2994C32.0276 35.4691 30.3449 35.6387 30.3449 35.8084C30.3449 35.9781 31.5228 38.0141 31.3545 38.1838C31.1863 38.3534 30.1766 37.3354 29.3353 36.4871C28.6622 35.8084 27.933 34.1683 27.6526 33.4331C27.6526 32.7544 27.8209 31.3971 28.9988 30.379C30.1766 29.361 32.1959 29.0217 32.1959 29.361C32.1959 29.6325 30.0645 31.5102 28.9988 32.4151C28.8866 32.7544 28.7295 33.5688 28.9988 34.1117C29.3353 34.7904 29.5036 34.7904 29.6718 34.7904C29.8401 34.7904 29.8401 34.2814 30.0084 33.9421C30.1766 33.6027 30.6814 32.7544 31.1863 32.0757C31.6911 31.3971 32.5324 31.2274 33.0372 31.2274M34.2151 31.2274C34.0468 31.2274 33.542 31.2274 33.0372 31.2274M34.2151 31.2274H33.0372M21.5949 61.2585C21.8193 61.7675 22.5372 62.8534 23.6141 63.1249C24.9603 63.4642 27.1478 64.1429 30.6814 63.9732C34.2151 63.8035 36.7391 62.7855 38.0853 61.7675C39.4315 60.7495 39.9363 60.0709 39.9363 59.7315C39.9363 59.3922 38.5901 59.2225 36.7391 60.2405C34.8882 61.2585 34.2151 61.7675 32.1959 62.1069C30.1766 62.4462 28.3257 62.4462 26.3064 62.1069C24.2872 61.7675 23.6141 61.2585 22.7728 61.2585M21.5949 61.2585C21.7071 61.2585 22.0997 61.2585 22.7728 61.2585M21.5949 61.2585H22.7728M26.3064 42.9344C26.643 43.2172 27.7536 43.5452 29.5036 42.5951C30.3839 42.1171 31.1008 41.6941 31.687 41.3482C32.5574 40.8345 33.1398 40.4908 33.542 40.3894C34.2151 40.2198 34.5516 40.2198 34.8882 40.7288C35.2247 41.2378 35.0565 43.7828 33.542 44.9705C32.0276 46.1581 30.5132 45.9885 29.167 45.4795C28.0901 45.0723 26.5869 44.2918 25.9699 43.9524C25.9699 43.9524 26.643 45.9885 26.3064 46.3278C25.9699 46.6671 25.5324 45.7849 25.1286 44.9705C24.7247 44.1561 25.1846 43.2738 25.4651 42.9344C26.026 42.1992 27.1814 40.7288 27.3161 40.7288C27.4843 40.7288 27.4843 41.0681 27.4843 41.5771C27.4843 41.9843 26.6991 42.6517 26.3064 42.9344ZM28.3257 44.1221C30.0084 43.0476 33.4747 40.9324 33.8786 41.0681C34.3834 41.2378 34.3834 43.1041 33.2055 43.9524C32.2632 44.6311 29.5597 44.3483 28.3257 44.1221ZM19.7439 39.7108C20.0805 38.8059 20.9218 36.8943 21.5949 36.4871C22.4362 35.9781 21.7632 36.1477 22.7728 35.9781C23.7824 35.8084 24.6237 35.8084 25.1286 36.1477C25.5324 36.4192 25.5212 37.1657 25.4651 37.5051C25.7455 37.4485 26.3064 37.3694 26.3064 37.5051C26.3064 37.6748 26.1382 38.6928 24.9603 39.2018C23.7824 39.7108 23.7824 39.8804 22.4362 39.8804C21.3593 39.8804 20.1926 39.8239 19.7439 39.7108ZM20.417 39.2018C20.3048 39.3149 20.2151 39.5411 20.7535 39.5411C21.4266 39.5411 23.6141 39.5411 23.6141 39.0321C23.6141 38.6249 23.4459 38.8624 23.1093 38.5231C22.9971 38.41 22.9074 38.2856 22.7728 38.0141C22.6045 37.6748 22.6045 37.1658 22.7728 36.6567C22.941 36.1477 22.0997 36.8264 21.4266 37.5051C20.8882 38.048 20.5292 38.8624 20.417 39.2018ZM23.4459 36.3174C23.6141 36.5436 23.9843 37.0639 24.1189 37.3354C24.2536 37.6069 24.2872 38.4665 24.2872 38.8624C24.5116 38.8059 24.9939 38.591 25.1286 38.1838C25.2632 37.7766 25.0725 36.9961 24.9603 36.6567C24.8481 36.4871 24.5228 36.1477 24.1189 36.1477C23.7151 36.1477 23.5019 36.2609 23.4459 36.3174ZM29.6718 40.0501C30.0084 39.937 30.6814 39.609 30.6814 39.2018C30.6814 38.7946 29.5597 39.1452 28.9988 39.3714C28.7183 39.4845 28.1238 39.7786 27.9891 40.0501C27.8545 40.3216 29.0548 40.1632 29.6718 40.0501ZM31.018 33.0937C30.7375 33.4331 30.1766 34.2135 30.1766 34.6207C30.1766 35.1297 30.1766 35.1297 30.5132 35.1297C30.8497 35.1297 31.8593 34.7904 32.3641 34.4511C32.869 34.1117 33.2055 33.9421 33.2055 33.7724C33.2055 33.6027 32.5324 33.6027 32.3641 33.2634C32.1959 32.9241 32.5324 31.7364 32.1959 31.9061C31.9266 32.0418 31.2984 32.7544 31.018 33.0937ZM32.869 31.7364C32.869 31.6798 32.9699 31.5667 33.3738 31.5667C33.8786 31.5667 34.0468 31.5667 34.2151 31.9061C34.3834 32.2454 34.0468 33.4331 33.7103 33.2634C33.3738 33.0937 33.7103 32.7544 33.542 32.4151C33.4074 32.1436 33.0372 31.8495 32.869 31.7364ZM27.4843 25.289C28.1013 25.289 29.6718 25.5605 31.018 26.6464C32.7007 28.0037 34.5516 29.1914 35.7295 31.2274C36.9074 33.2634 37.7488 34.7904 38.0853 37.1657C38.4218 39.5411 38.4218 40.8984 38.4218 41.7468C38.4218 42.5951 37.7488 45.4795 37.4122 46.3278C37.0757 47.1761 36.7391 48.5335 36.2343 49.2121C35.7295 49.8908 35.5613 50.2301 34.5516 50.7391C33.542 51.2482 32.869 51.2482 32.0276 51.2482C31.1863 51.2482 28.6622 50.7391 27.9891 50.3998C27.3161 50.0605 24.2872 48.7031 23.7824 48.1941C23.2776 47.6851 21.4266 46.1581 20.2487 44.4615C19.0709 42.7648 17.893 40.2198 17.5564 39.0321C17.2199 37.8444 16.8833 35.6387 16.8833 34.4511C16.8833 33.2634 17.0516 32.0757 18.0612 30.2094C19.0709 28.343 21.5949 29.0217 22.268 29.1914C22.941 29.361 23.6141 29.87 24.1189 29.7004C24.6237 29.5307 24.4555 27.325 24.792 26.816C25.1286 26.307 25.8016 25.6284 26.4747 25.4587C27.0132 25.323 27.3721 25.289 27.4843 25.289ZM21.7632 34.1117C22.0436 34.0552 22.7391 33.976 23.2776 34.1117C23.9507 34.2814 24.6237 34.6207 24.6237 34.7904C24.6237 34.9601 23.1093 34.7904 21.5949 35.1297C20.0805 35.4691 19.4074 36.1477 19.2391 35.9781C19.0709 35.8084 19.7439 34.7904 20.5853 34.4511C21.2584 34.1796 21.651 34.1117 21.7632 34.1117ZM30.1766 55.1505C30.9619 55.1505 32.5324 55.2862 32.5324 55.8292C32.5324 56.5078 31.1863 56.6775 30.3449 56.6775C29.5036 56.6775 28.1574 56.3382 28.1574 55.6595C28.1574 55.1166 29.5036 55.0939 30.1766 55.1505ZM5.27275 21.726C5.27275 22.3481 5.3064 23.762 5.44102 24.4407C5.60929 25.289 7.29198 29.0217 7.62852 30.379C7.96506 31.7364 8.3016 33.9421 7.79679 34.9601C7.29198 35.9781 7.12372 36.8264 5.94583 38.0141C4.76794 39.2018 4.09486 39.7108 3.25352 41.0681C2.41217 42.4254 2.07563 43.6131 2.07563 44.9705C2.07563 46.3278 2.58044 47.0065 2.58044 47.6851C2.58044 48.3638 1.73909 50.0605 1.40255 50.3998C1.06601 50.7391 0.897743 51.7572 1.06601 52.6055C1.23428 53.4538 2.41217 54.8112 3.08525 54.9808C3.75833 55.1505 5.27276 55.4898 6.45064 54.6415C7.62852 53.7932 8.63815 52.7752 8.63815 51.4178C8.63815 50.0605 8.13334 49.3818 7.29199 48.5335C6.45064 47.6851 5.44103 48.0245 5.44103 47.5155C5.44103 47.0065 7.7968 44.9705 8.30161 44.6311C8.80642 44.2918 10.1526 43.9524 11.1622 43.9524C12.1718 43.9524 13.8545 45.1401 14.191 45.8188C14.5276 46.4975 14.8641 47.3458 15.8737 48.3638C16.8833 49.3818 17.5564 50.9088 16.8834 52.6055C16.2103 54.3022 15.2007 55.6595 15.2007 56.1685C15.2007 56.6775 14.5368 58.0614 14.6958 58.3742C14.8549 58.6869 15.6963 58.6869 15.8737 58.5439C16.0512 58.4008 15.7055 56.8472 16.042 56.1685C16.3785 55.4898 17.5564 53.1145 17.7247 52.2662C17.893 51.4178 18.0612 50.7391 17.7247 49.8908C17.3882 49.0425 16.5468 47.6851 15.8737 47.0065C15.2007 46.3278 14.8641 44.9705 14.191 44.4615C13.518 43.9524 12.3401 43.2738 10.8257 43.2738C9.31123 43.2738 8.80642 43.6131 7.7968 44.1221C6.78718 44.6311 5.6093 45.9885 5.27276 46.4975C4.93622 47.0065 4.93622 47.1761 5.10449 47.6851C5.27276 48.1941 5.77757 48.5335 6.95545 49.2121C8.13334 49.8908 7.7968 51.7572 7.7968 52.2662C7.7968 52.7752 6.61892 53.9628 6.28238 54.1325C5.94583 54.3022 5.27276 54.4718 4.43141 54.4718C3.59006 54.4718 1.7391 54.1325 1.7391 52.2662C1.7391 50.3998 2.58045 49.5515 2.74872 49.0425C2.91699 48.5335 3.25352 48.1941 3.08525 47.5155C2.91699 46.8368 2.41218 45.4795 2.74872 44.1221C3.08525 42.7648 3.59006 41.7468 3.9266 41.2378C4.26314 40.7288 6.28237 38.3534 6.45064 38.1838C6.61892 38.0141 8.97469 35.1297 8.80642 33.0937C8.63815 31.0577 6.78719 26.4767 6.61892 25.9677C6.45064 25.4587 5.44101 22.5743 5.94583 19.8597C6.45064 17.145 6.11411 16.636 7.29199 14.4303C8.46988 12.2246 8.97469 10.6976 10.9939 8.83128C13.0132 6.96494 13.3497 7.47394 13.6862 6.79527C14.0228 6.1166 14.0228 5.09859 14.3593 3.74125C14.6959 2.38391 16.042 2.04458 16.7151 2.04458C17.3882 2.04458 19.0709 2.38391 19.5757 3.74125C20.0805 5.09859 20.2487 5.43793 19.9122 5.94693C19.5757 6.45593 19.0709 8.15261 17.2199 8.15261C15.3689 8.15261 15.3689 7.64361 14.8641 7.64361C14.3593 7.64361 13.518 8.15261 13.3497 9.34028C13.1814 10.528 13.518 13.2426 14.191 14.2606C14.8641 15.2786 16.3785 17.4843 18.5661 18.5023C20.7536 19.5203 21.5949 20.199 23.7824 20.199C25.9699 20.199 26.643 19.8597 28.3257 20.199C30.0084 20.5383 31.8593 21.726 32.869 22.5743C33.8786 23.4227 35.7295 24.9497 37.0757 24.9497C38.4219 24.9497 39.768 23.762 40.6094 21.8957C41.4507 20.0293 41.619 20.0293 41.1142 18.672C40.6094 17.3147 40.1045 17.654 39.2632 17.654C38.4219 17.654 35.7295 17.8237 35.7295 14.9393C35.7295 12.055 37.7488 11.8853 38.4219 11.8853C39.0949 11.8853 40.4411 12.2246 40.7776 13.7516C41.1142 15.2786 41.7872 16.2966 42.2921 16.8056C42.7969 17.3147 45.3209 19.181 45.4892 20.8777C45.6574 22.5743 46.1623 24.271 45.4892 26.307C44.8161 28.343 43.8065 29.7004 43.1334 30.379C42.4603 31.0577 41.1142 31.9061 40.7776 32.9241C40.4411 33.9421 40.4411 33.9421 40.4411 34.6207C40.4411 35.2994 41.4507 38.6928 41.4507 39.5411C41.4507 40.3894 41.7872 40.7288 41.619 42.2558C41.4507 43.7828 41.1142 44.9705 41.2824 45.9885C41.4507 47.0065 42.2921 47.5155 42.2921 48.5335C42.2921 49.5515 41.7872 50.5695 41.9555 51.0785C42.1238 51.5875 42.2921 51.9268 42.7969 52.2662C43.3017 52.6055 45.8257 53.6235 45.8257 54.8112C45.8257 55.9988 45.1526 56.6775 45.1526 57.0168C45.1526 57.3562 46.3305 57.5258 46.6671 57.5258C47.0036 57.5258 50.7055 57.3562 50.8738 57.0168C51.0421 56.6775 51.0421 56.1685 50.8738 55.9988C50.7055 55.8292 46.1623 57.0168 45.994 56.6775C45.8257 56.3382 46.3305 55.4898 46.3305 54.6415C46.3305 53.7932 45.8257 52.9448 45.1526 52.4358C44.4796 51.9268 42.2921 51.4178 42.2921 51.0785C42.2921 50.7391 43.3017 49.7211 43.3017 48.5335C43.3017 47.3458 42.2921 47.0065 41.9555 45.9885C41.619 44.9705 42.6286 42.4254 42.4603 40.7288C42.2921 39.0321 40.9459 34.4511 41.2824 33.2634C41.619 32.0757 42.6286 32.2454 43.3017 31.5667C43.9747 30.8881 45.4892 28.6824 45.8257 27.1554C46.1623 25.6284 46.8353 23.253 46.3305 21.217C45.8257 19.181 44.6478 18.163 44.143 17.654C43.6382 17.145 42.6286 16.9753 42.2921 16.127C41.9555 15.2786 42.4603 14.4303 41.9555 13.4123C41.4507 12.3943 40.4411 11.7156 39.9363 11.546C39.4315 11.3763 37.7488 10.8673 36.2343 11.8853C34.7199 12.9033 34.7199 14.4303 34.7199 15.109C34.7199 15.7876 35.2247 17.3147 36.0661 17.9933C36.9074 18.672 37.7488 18.672 38.4219 18.672C39.0949 18.672 40.2728 17.9933 40.4411 18.3327C40.6094 18.672 40.2728 20.5383 39.9363 21.217C39.5997 21.8957 39.0949 23.5923 38.0853 23.9317C37.0757 24.271 37.4122 24.271 36.5709 23.9317C35.7295 23.5923 33.542 22.0653 32.869 21.5563C32.1959 21.0473 31.3545 20.199 29.5036 19.69C27.6526 19.181 25.9699 19.181 23.7824 19.181C21.5949 19.181 18.0612 17.4843 17.3882 16.636C16.7151 15.7876 15.5372 15.2786 14.8641 13.073C14.191 10.8673 14.0228 8.15261 14.5276 8.15261C15.0324 8.15261 16.3786 9.00095 17.2199 9.00095C18.0612 9.00095 19.5757 8.15261 20.2487 6.96494C20.9218 5.77726 20.9218 4.58959 20.5853 3.74125C20.2487 2.89292 19.2391 1.19624 17.3882 1.02657C15.5372 0.856905 15.2007 1.53558 14.8641 2.04458C14.5276 2.55358 14.0228 2.55358 13.6862 3.74125C13.3497 4.92893 13.6862 5.77726 13.3497 6.28627C13.0132 6.79527 11.3305 7.47394 9.4795 9.50995C7.62852 11.546 6.61892 14.2606 6.28238 15.4483C6.01314 16.3984 5.49711 20.0293 5.27275 21.726Z" stroke="black"/>
</svg>
