<svg width="1440" height="1024" viewBox="0 0 1440 1024" fill="none" xmlns="http://www.w3.org/2000/svg">
<g clip-path="url(#clip0_1_6)">
<rect width="1440" height="1024" fill="white"/>
<path d="M1472 -143C1472 -141.656 1472 -140.315 1471.99 -138.978L1473.99 -138.965C1473.95 -133.598 1473.85 -128.284 1473.68 -123.022L1471.68 -123.087C1470.22 -77.5937 1463.74 -36.046 1453.16 1.74863L1455.08 2.28804C1452.18 12.6651 1448.96 22.7619 1445.46 32.5824L1443.57 31.9099C1442.69 34.3977 1441.78 36.8676 1440.85 39.3198L1442.72 40.0259C1440.84 45.0177 1438.88 49.9362 1436.85 54.7821L1435 54.0083C1417.84 94.9093 1395.42 130.599 1369.26 161.4L1370.78 162.694C1363.87 170.826 1356.71 178.62 1349.31 186.08L1347.89 184.671C1346.03 186.548 1344.15 188.403 1342.26 190.237L1343.65 191.672C1339.84 195.37 1335.98 198.982 1332.06 202.509L1330.72 201.022C1298.71 229.813 1263.07 252.955 1225.77 270.858L1226.64 272.661C1217.04 277.267 1207.34 281.528 1197.56 285.45L1196.81 283.594C1194.37 284.574 1191.92 285.534 1189.46 286.473L1190.18 288.341C1185.21 290.238 1180.23 292.049 1175.24 293.775L1174.59 291.885C1133.45 306.108 1091.44 314.517 1051.03 317.623L1051.18 319.617C1040.48 320.44 1029.88 320.892 1019.44 320.983L1019.43 318.983C1018.11 318.994 1016.81 319 1015.5 319C1014.27 319 1013.04 318.997 1011.81 318.99L1011.79 320.99C1006.85 320.963 1001.89 320.883 996.905 320.751L996.958 318.752C958.607 317.741 919.187 313.708 878.742 307.876L878.457 309.855C868.715 308.45 858.915 306.942 849.059 305.346L849.379 303.372C846.932 302.976 844.481 302.574 842.027 302.168L841.7 304.141C836.829 303.334 831.945 302.507 827.046 301.662L827.386 299.691C790.623 293.349 753.088 285.993 714.796 278.49L710.467 277.641L710.083 279.604C700.394 277.706 690.659 275.8 680.877 273.902L681.258 271.938C678.822 271.466 676.383 270.993 673.941 270.521L673.561 272.485C668.706 271.547 663.84 270.612 658.962 269.68L659.337 267.716C620.913 260.381 581.782 253.309 541.989 247.336L541.692 249.314C531.915 247.846 522.097 246.445 512.241 245.123L512.507 243.14C510.048 242.81 507.586 242.485 505.122 242.165L504.865 244.149C499.954 243.511 495.034 242.894 490.104 242.299L490.344 240.313C451.339 235.602 411.728 232.252 371.545 231.02L371.484 233.019C361.599 232.716 351.68 232.542 341.728 232.507L341.735 230.507C340.49 230.502 339.245 230.5 338 230.5C336.638 230.5 335.283 230.509 333.935 230.526L333.96 232.526C328.6 232.593 323.345 232.796 318.191 233.128L318.062 231.132C270.305 234.209 231.151 248.297 197.746 268.751L198.79 270.456C189.731 276.003 181.098 282.022 172.831 288.418L171.607 286.837C169.505 288.463 167.427 290.114 165.371 291.787L166.634 293.338C162.542 296.669 158.539 300.091 154.619 303.592L153.287 302.1C121.172 330.781 94.6018 364.68 69.5143 397.015L71.0945 398.241C70.3462 399.205 69.5992 400.169 68.8532 401.13C63.0699 408.587 57.3531 415.958 51.6518 423.161L50.0835 421.92C48.4488 423.985 46.8158 426.036 45.1831 428.071L46.7431 429.323C43.4133 433.474 40.0837 437.559 36.7443 441.562L35.2084 440.281C5.54292 475.848 -24.6166 504.592 -62.4349 515.629L-61.8746 517.549C-71.6858 520.412 -82.0148 522.106 -92.9808 522.439L-93.0415 520.44C-94.3514 520.48 -95.6709 520.5 -97 520.5H-99V522.5V526.152H-97V540.761H-99V657.63H-97V686.848H-99V694.152H-97V708.761H-99V825.63H-97V854.848H-99V858.5V860.5H-97H-93.0543V858.5H-77.2717V860.5H48.9891V858.5H80.5544V860.5H88.4457V858.5H104.228V860.5H230.489V858.5H262.054V860.5H269.946V858.5H285.728V860.5H411.989V858.5H443.554V860.5H451.446V858.5H467.228V860.5H593.489V858.5H625.054V860.5H632.946V858.5H648.728V860.5H774.989V858.5H806.554V860.5H814.446V858.5H830.228V860.5H956.489V858.5H988.054V860.5H995.946V858.5H1011.73V860.5H1137.99V858.5H1169.55V860.5H1177.45V858.5H1193.23V860.5H1319.49V858.5H1351.05V860.5H1358.95V858.5H1374.73V860.5H1500.99V858.5H1532.55V860.5H1536.5H1538.5V858.5V854.146H1536.5V836.728H1538.5V697.389H1536.5V662.554H1538.5V653.846H1536.5V636.428H1538.5V497.089H1536.5V462.254H1538.5V453.546H1536.5V436.128H1538.5V296.789H1536.5V261.954H1538.5V253.246H1536.5V235.828H1538.5V96.4891H1536.5V61.6544H1538.5V52.9457H1536.5V35.5283H1538.5V-103.811H1536.5V-138.646H1538.5V-143V-145H1536.5H1535.14V-143H1534.5H1529.71V-145H1486.23V-143H1476H1475.36V-145H1474H1472V-143Z" fill="#D6F1F7" stroke="black" stroke-width="4" stroke-dasharray="8 16 128 32"/>
<path d="M338 554.5C88.5 554.5 64 844.5 -97 844.5V1180.5H1536.5V179H1474C1474 510.5 1215 643 1015.5 643C816 643 587.5 554.5 338 554.5Z" fill="url(#paint0_linear_1_6)" stroke="black" stroke-width="5" stroke-dasharray="8 16 128 32"/>
</g>
<defs>
<linearGradient id="paint0_linear_1_6" x1="386" y1="755.5" x2="498.5" y2="1703" gradientUnits="userSpaceOnUse">
<stop stopColor="#ECABBB"/>
<stop offset="1" stopColor="#CE8C9C"/>
</linearGradient>
<clipPath id="clip0_1_6">
<rect width="1440" height="1024" fill="white"/>
</clipPath>
</defs>
</svg>
