<svg width="61" height="120" viewBox="0 0 61 120" fill="none" xmlns="http://www.w3.org/2000/svg">
<rect x="18" y="120" width="120" height="4" transform="rotate(-90 18 120)" fill="#0C352D"/>
<rect x="32" y="120" width="120" height="4" transform="rotate(-90 32 120)" fill="#0C352D"/>
<rect x="17" y="120" width="120" height="1" transform="rotate(-90 17 120)" fill="#082B3B"/>
<rect x="36" y="120" width="120" height="1" transform="rotate(-90 36 120)" fill="#082B3B"/>
<rect x="22" y="120" width="120" height="1" transform="rotate(-90 22 120)" fill="#CFB65A"/>
<rect x="23" y="120" width="120" height="3" transform="rotate(-90 23 120)" fill="#531818"/>
<rect x="26" y="120" width="120" height="2" transform="rotate(-90 26 120)" fill="#CFB65A"/>
<rect x="31" y="120" width="120" height="1" transform="rotate(-90 31 120)" fill="#CFB65A"/>
<rect x="28" y="120" width="120" height="3" transform="rotate(-90 28 120)" fill="#531818"/>
<path d="M4 55L3 49V46.5L4.5 45L5.5 45.5H7L8.5 44.5L10 45.5L11.5 44H12.5L13.5 46.5H17.5L18.5 45H21.5L22.5 46.5H25.5L27 45H28V47L30 48H33.5V50H35.5V50.5V51.5L37.5 52.5V54.5L38.1667 55L39.5 56L42.5 56.5L43.5 58.5H45L45.75 59.5L46.5 60.5V62L47.5 62.5H49.5L49.75 63L50 63.5L50.5 65H51.5L52 66H53.5L55 65.5L56 66L57 65.5L58 66.5L58.8004 65.7737L57.5 70L53 75L49.5 80L39.5 88L34 91.5L27 92H20.5L17 91.5L12.7281 82L13.5 81H12L7.5 74L6 62.5L4 55Z" fill="#E4E1C9"/>
<path d="M49.5 34L56 40.5L59.3478 51.5H58L57 50.5H55V49L53.5 47.5H51.5V46H50L48.5 44.5H46.5L45.5 43.5H43.5V42.5L42.5 41H40L38.5 39.5H35.5L33.5 38.5H30.5L30 37.5L28.5 37H25.5L25 36H23.5L22.5 34.5H18L16 35L14.5 35.5H11L9.5 36H8L13.5 32L17 29L20.5 27H32.5L38.5 28L46 31L49.5 34Z" fill="#E4E1C9"/>
<path d="M34.5 64.5L27.5 71.5H32L38 65.5L34.5 61V64.5Z" fill="#C6C3AF"/>
<path d="M30.5 62.5L22.5 69.5L18 65L15.5 63.5L14.5 61V57L17 54L20.5 53.5L25 55L28.5 57.5L30.5 59.5V62.5Z" fill="#C6C3AF"/>
<path d="M18.5 75L14.5 79.5L10.5 75H18.5Z" fill="#C6C3AF"/>
<path d="M21 83H14.5L16.5 89.5L22.5 84.5L21 83Z" fill="#C6C3AF"/>
<path d="M7.5 55L4 54.5L6 63H11.5V59.5L10 57L7.5 55Z" fill="#C6C3AF"/>
<path d="M18.5 75L14.5 79.5V80H22.5V76.5L21 74L18.5 75Z" fill="#F2F0DD"/>
<path d="M43.5 77.5V76L44.5 72H46L47.5 74L46 77.5L44.5 78L43.5 77.5Z" fill="#F2F0DD"/>
<path d="M22.5 32L18.5 36.5H15H8L11.5 33L17 29.5L20.5 27H29.5L35.5 28L42 29.5L48.5 34L54 39L57 44.5L57.5 52L52 49.5L36.5 39.5L27.5 32H22.5Z" fill="#C6C3AF"/>
<path d="M27.5 71.5L34.5 64.5M46 65L47.5 67V69L46 70.5M23 82L21 81H13.5M5 54.5L8 55L10 57L11.5 59.5V66.5V73.5C11.5 73.5 15.5711 73.5 18.5 73.5M14 61V57L17 53.5L20.5 53L24.5 54.5L28 56.5L31 60M19.5 62H20M20 62H21.5M20 62V63H21.5V62M21.5 62H24.5M24.5 62L26 62.5M24.5 62L22.5 64H21H19.5M8.5 63H7V64H8.5V63ZM8.5 63H10M11.5 63H10M43.5 75.5V77.5L44.5 78L46 77.5L47.5 73.5L50.5 71V69M13.5 81H12L7.5 74L6 62.5L4 55L3 49V46.5L4.5 45L5.5 45.5H7L8.5 44.5L10 45.5L11.5 44H12.5L13.5 46.5H17.5L18.5 45H21.5L22.5 46.5H25.5L27 45H28V47L30 48H33.5V50H35.5V50.5V51.5L37.5 52.5V54.5L38.1667 55L39.5 56L42.5 56.5L43.5 58.5H45L45.75 59.5L46.5 60.5V62L47.5 62.5H49.5L49.75 63L50 63.5L50.5 65H51.5L52 66H53.5L55 65.5L56 66L57 65.5L58 66.5L58.8004 65.7737L57.5 70L53 75L49.5 80L39.5 88L34 91.5L27 92H20.5L17 91.5L12.7281 82L13.5 81ZM10 63L8.5 65H7H6.5M56 40.5L49.5 34L46 31L38.5 28L32.5 27H20.5L17 29L13.5 32L8 36H9.5L11 35.5H14.5L16 35L18 34.5H22.5L23.5 36H25L25.5 37H28.5L30 37.5L30.5 38.5H33.5L35.5 39.5H38.5L40 41H42.5L43.5 42.5V43.5H45.5L46.5 44.5H48.5L50 46H51.5V47.5H53.5L55 49V50.5H57L58 51.5H59.3478L56 40.5Z" stroke="black"/>
<path d="M59.5 52V63.5L58.8004 65.7737L58 66.5L57 65.5L56 66L55 65.5L53.5 66H52L51.5 65H50.5L50 63.5L49.75 63L49.5 62.5H47.5L46.5 62V60.5L45.75 59.5L45 58.5H43.5L42.5 56.5L39.5 56L38.1667 55L37.5 54.5V52.5L35.5 51.5V50.5V50H33.5V48H30L28 47V45H27L25.5 46.5H22.5L21.5 45H18.5L17.5 46.5H13.5L12.5 44H11.5L10 45.5L8.5 44.5L7 45.5H5.5L4.5 45L3 46.5H2L1 45.5V42L3 38.5L5 36H8H9.5L11 35.5H14.5L16 35L18 34.5H22.5L23.5 36H25L25.5 37H28.5L30 37.5L30.5 38.5H33.5L35.5 39.5H38.5L40 41H42.5L43.5 42.5V43.5H45.5L46.5 44.5H48.5L50 46H51.5V47.5H53.5L55 49V50.5H57L58 51.5H59.3478L59.5 52Z" fill="#CFB65A"/>
<path d="M34 45V43L35.5 43.5V45.5L33 48H30L34 45Z" fill="#746428"/>
<path d="M40 43H38.5V46L37 47.75L35.5 49.5V50.5H38L40.5 47.5L40 43Z" fill="#746428"/>
<path d="M45.5 52.5L42.5 55H39V52H40L42.5 49V43H43.5L45.5 50V52.5Z" fill="#746428"/>
<path d="M48 59.5H46.5L45 58H44L43 56.5L44 55.5L47 53L47.5 49L46.5 47V45.5H47.5L49 49H50.5L50.5 57L48 59.5Z" fill="#746428"/>
<path d="M54.5 59L50 63L49.5 62.5H48L47 62V61.5H49.5L52.5 58.5V50L54.5 52L54.5 59Z" fill="#746428"/>
<path d="M58.5 62L56 65H57L58 66L59 63.5V59H58.5L58.5 60V61V62Z" fill="#746428"/>
<path d="M27 45L25.5 46.5H23L22 45L23 44L25 42.5V40H27V45Z" fill="#746428"/>
<path d="M23 44L25 42.5V40H27V45L25.5 46.5H23L22 45L23 44ZM23 44V38M19 38.5V43.5L16.5 46.5M34 43V45L30 48H33L35.5 45.5V43.5L34 43ZM35.5 49.5V50.5H38L40.5 47.5L40 43H38.5V46L37 47.75L35.5 49.5ZM42.5 55L45.5 52.5V50L43.5 43H42.5V49L40 52H39V55H42.5ZM46.5 59.5H48L50.5 57L50.5 49H49L47.5 45.5H46.5V47L47.5 49L47 53L44 55.5L43 56.5L44 58H45L46.5 59.5ZM50 63L54.5 59L54.5 52L52.5 50V58.5L49.5 61.5H47V62L48 62.5H49.5L50 63ZM56 65L58.5 62V61V60L58.5 59H59V63.5L58 66L57 65H56Z" stroke="#746428"/>
<path d="M6.5 40V42.5V45L8.5 44.5L10.5 42.5V41L12.5 39.5V37.5H9L6.5 40Z" fill="#FFF0BA"/>
<path d="M17 37.5L13.5 40L14 41.5H15H17L18 42L19 41V37.5H17Z" fill="#FFF0BA"/>
<path d="M5.5 36.5L3 40L1.5 43V45.5M31 40V42V44.5L28.5 46.5M36 41V46L33.5 49M41.5 42.5V47.5L38.5 51H36M46.5 45V52.5L43 55.5H40M51 48.5V57.5L48.5 60H46.5M55 51.5V60L51 63.5H50M57 57V61.5L53 66M6.5 42.5V40L9 37.5H12.5V39.5L10.5 41V42.5L8.5 44.5L6.5 45V42.5ZM13.5 40L17 37.5H19V41L18 42L17 41.5H15H14L13.5 40Z" stroke="#FFF0BA"/>
<path d="M5.5 45.5L4.5 45L3 46.5H2L1 45.5V42L3 38.5L5 36H8H9.5L11 35.5H14.5L16 35L18 34.5H22.5L23.5 36H25L25.5 37H28.5L30 37.5L30.5 38.5H33.5L35.5 39.5H38.5L40 41H42.5L43.5 42.5V43.5H45.5L46.5 44.5H48.5L50 46H51.5V47.5H53.5L55 49V50.5H57L58 51.5H59.3478L59.5 52V63.5L58.8004 65.7737L58 66.5L57 65.5L56 66L55 65.5L53.5 66H52L51.5 65H50.5L50 63.5L49.75 63M5.5 45.5H7L8.5 44.5L10 45.5L11.5 44H12.5M5.5 45.5V40L8 37.5M12.5 44L13.5 46.5H17.5L18.5 45H21.5L22.5 46.5H25.5L27 45H28V47L30 48H33.5M12.5 44V40L17 36.5H21M33.5 48V50H35.5V50.5M33.5 48L35.5 45.5V41M22 38V41L22.0853 45.8779M15 44.5V43.5L16.5 42.5M40.5 42.5V47.5L38 50.5H35.5M35.5 50.5V51.5L37.5 52.5V54.5L38.1667 55M45.5 45V52.5L42.5 55H38.1667M38.1667 55L39.5 56L42.5 56.5L43.5 58.5H45L45.75 59.5M50.5 48.5V57L48 59.5H45.75M45.75 59.5L46.5 60.5V62L47.5 62.5H49.5L49.75 63M54.5 51.5V59.5L50.5 63H49.75" stroke="black"/>
<path d="M19 86.5L16 88L17 91L20 91.5L24 89.5V86.5H19Z" fill="#F2F0DD"/>
<path d="M12 73V59.5L13.5 57V72L15 73H12Z" fill="#F2F0DD"/>
</svg>
